<svg width="1200" height="800" viewBox="0 0 1200 800" fill="none" xmlns="http://www.w3.org/2000/svg">
  <rect width="1200" height="800" rx="36" fill="#0F172A"/>
  <rect x="40" y="40" width="1120" height="720" rx="30" fill="url(#bg)"/>
  <circle cx="1020" cy="170" r="170" fill="#38BDF8" fill-opacity="0.16"/>
  <circle cx="170" cy="650" r="190" fill="#22C55E" fill-opacity="0.14"/>
  <rect x="120" y="120" width="520" height="560" rx="28" fill="#0B1120" stroke="#334155" stroke-width="2"/>
  <rect x="120" y="120" width="520" height="92" rx="28" fill="#111827"/>
  <circle cx="176" cy="166" r="10" fill="#22C55E"/>
  <circle cx="208" cy="166" r="10" fill="#F59E0B"/>
  <circle cx="240" cy="166" r="10" fill="#EF4444"/>
  <text x="286" y="174" fill="#E2E8F0" font-family="Arial, sans-serif" font-size="26" font-weight="700">Tutorias Booking</text>

  <rect x="160" y="252" width="180" height="110" rx="20" fill="#1D4ED8"/>
  <text x="188" y="296" fill="#DBEAFE" font-family="Arial, sans-serif" font-size="18" font-weight="700">Alumno validado</text>
  <text x="188" y="327" fill="#BFDBFE" font-family="Arial, sans-serif" font-size="16">DNI + email</text>

  <rect x="374" y="252" width="226" height="110" rx="20" fill="#0F766E"/>
  <text x="402" y="296" fill="#CCFBF1" font-family="Arial, sans-serif" font-size="18" font-weight="700">Google Calendar</text>
  <text x="402" y="327" fill="#99F6E4" font-family="Arial, sans-serif" font-size="16">Huecos reales y reservas</text>

  <rect x="160" y="392" width="440" height="236" rx="22" fill="#111827" stroke="#334155" stroke-width="2"/>
  <g stroke="#334155">
    <line x1="160" y1="458" x2="600" y2="458"/>
    <line x1="160" y1="524" x2="600" y2="524"/>
    <line x1="160" y1="590" x2="600" y2="590"/>
    <line x1="270" y1="392" x2="270" y2="628"/>
    <line x1="380" y1="392" x2="380" y2="628"/>
    <line x1="490" y1="392" x2="490" y2="628"/>
  </g>
  <rect x="282" y="470" width="86" height="42" rx="14" fill="#22C55E"/>
  <rect x="392" y="536" width="86" height="42" rx="14" fill="#38BDF8"/>
  <rect x="502" y="470" width="86" height="108" rx="14" fill="#F59E0B"/>

  <rect x="706" y="146" width="372" height="184" rx="28" fill="#111827" stroke="#334155" stroke-width="2"/>
  <text x="742" y="208" fill="#F8FAFC" font-family="Arial, sans-serif" font-size="36" font-weight="700">Reservas reales</text>
  <text x="742" y="254" fill="#94A3B8" font-family="Arial, sans-serif" font-size="22">WordPress + Google Meet + Excel</text>
  <text x="742" y="293" fill="#94A3B8" font-family="Arial, sans-serif" font-size="22">Flujo operativo completo</text>

  <rect x="706" y="370" width="372" height="270" rx="28" fill="#111827" stroke="#334155" stroke-width="2"/>
  <text x="742" y="430" fill="#E2E8F0" font-family="Arial, sans-serif" font-size="26" font-weight="700">Capacidades clave</text>
  <text x="742" y="482" fill="#CBD5E1" font-family="Arial, sans-serif" font-size="20">- Tutorias online y presencial</text>
  <text x="742" y="522" fill="#CBD5E1" font-family="Arial, sans-serif" font-size="20">- OAuth con Google Calendar</text>
  <text x="742" y="562" fill="#CBD5E1" font-family="Arial, sans-serif" font-size="20">- Slots de 45 minutos</text>
  <text x="742" y="602" fill="#CBD5E1" font-family="Arial, sans-serif" font-size="20">- Panel admin y exportacion XLSX</text>

  <defs>
    <linearGradient id="bg" x1="108" y1="92" x2="1051" y2="739" gradientUnits="userSpaceOnUse">
      <stop stop-color="#111827"/>
      <stop offset="1" stop-color="#0F172A"/>
    </linearGradient>
  </defs>
</svg>
